<?xml version="1.0" standalone="no"?><!DOCTYPE svg PUBLIC "-//W3C//DTD SVG 1.1//EN" "http://www.w3.org/Graphics/SVG/1.1/DTD/svg11.dtd"><svg t="1618543748958" class="icon" viewBox="0 0 1365 1024" version="1.1" xmlns="http://www.w3.org/2000/svg" p-id="3938" xmlns:xlink="http://www.w3.org/1999/xlink" width="266.6015625" height="200"><defs><style type="text/css"></style></defs><path d="M1365.203314 853.252071a168.115037 168.115037 0 0 1-22.135797 81.814685L911.955814 453.052471 1338.581849 82.009713a169.285211 169.285211 0 0 1 26.621465 90.493477v680.553852zM682.601657 540.718027L1275.587468 21.258166a167.627464 167.627464 0 0 0-81.814684-21.258166H169.967813A168.992667 168.992667 0 0 0 87.76307 21.258166z m163.824398-31.887249L709.223122 629.553757a40.858585 40.858585 0 0 1-56.070851 0L515.851824 508.830778l-434.03714 488.547757a168.212551 168.212551 0 0 0 90.103419 26.231407h1023.902486a168.212551 168.212551 0 0 0 90.103418-26.231407L848.376345 508.830778h-1.95029zM26.621465 82.009713A169.967813 169.967813 0 0 0 0 170.942958v682.601657a167.724979 167.724979 0 0 0 22.135797 81.814684l430.81916-482.014284L26.718979 82.78983z m0 0z" p-id="3939" fill="#fff"></path></svg>